<svg width="135" height="132" viewBox="0 0 135 132" fill="none" xmlns="http://www.w3.org/2000/svg">
<circle cx="61.7728" cy="60.7768" r="60.7768" fill="#F5F8FF"/>
<circle cx="61.7728" cy="60.7769" r="47.2709" fill="#E4ECFE"/>
<path d="M90.025 101.448H33.6511C32.1847 101.448 30.996 100.26 30.996 98.7931V22.6552C30.996 21.1888 32.1847 20 33.6511 20H77.6685L92.6802 33.8569V98.7931C92.6802 100.26 91.4914 101.448 90.025 101.448Z" fill="#F5F8FF" stroke="#B7CEFF" stroke-width="2"/>
<path fill-rule="evenodd" clip-rule="evenodd" d="M37.7811 37.0238C37.7811 36.0145 38.5993 35.1962 39.6087 35.1962H74.9954C76.0048 35.1962 76.823 36.0145 76.823 37.0238C76.823 38.0332 76.0048 38.8514 74.9954 38.8514H39.6087C38.5993 38.8514 37.7811 38.0332 37.7811 37.0238ZM37.7811 48.2887C37.7811 47.2794 38.5993 46.4611 39.6087 46.4611H85.269C86.2784 46.4611 87.0966 47.2794 87.0966 48.2887C87.0966 49.2981 86.2784 50.1163 85.269 50.1163H39.6087C38.5993 50.1163 37.7811 49.2981 37.7811 48.2887ZM37.7811 59.5536C37.7811 58.5443 38.5993 57.726 39.6087 57.726H52.1653C53.1746 57.726 53.9928 58.5443 53.9928 59.5536C53.9928 60.563 53.1746 61.3812 52.1653 61.3812H39.6087C38.5993 61.3812 37.7811 60.563 37.7811 59.5536ZM58.3282 59.5536C58.3282 58.5443 59.1465 57.726 60.1558 57.726H85.269C86.2784 57.726 87.0966 58.5443 87.0966 59.5536C87.0966 60.563 86.2784 61.3812 85.269 61.3812H60.1558C59.1465 61.3812 58.3282 60.563 58.3282 59.5536ZM37.7811 70.8185C37.7811 69.8092 38.5993 68.9909 39.6087 68.9909H72.7124C73.7218 68.9909 74.54 69.8092 74.54 70.8185C74.54 71.8279 73.7218 72.6461 72.7124 72.6461H39.6087C38.5993 72.6461 37.7811 71.8279 37.7811 70.8185ZM78.8754 70.8185C78.8754 69.8092 79.6936 68.9909 80.703 68.9909H85.269C86.2784 68.9909 87.0966 69.8092 87.0966 70.8185C87.0966 71.8279 86.2784 72.6461 85.269 72.6461H80.703C79.6936 72.6461 78.8754 71.8279 78.8754 70.8185ZM37.7811 80.9569C37.7811 79.9476 38.5993 79.1293 39.6087 79.1293H81.8445C82.8539 79.1293 83.6721 79.9476 83.6721 80.9569C83.6721 81.9663 82.8539 82.7845 81.8445 82.7845H39.6087C38.5993 82.7845 37.7811 81.9663 37.7811 80.9569ZM37.7811 91.0953C37.7811 90.086 38.5993 89.2677 39.6087 89.2677H70.4294C71.4388 89.2677 72.257 90.086 72.257 91.0953C72.257 92.1047 71.4388 92.9229 70.4294 92.9229H39.6087C38.5993 92.9229 37.7811 92.1047 37.7811 91.0953Z" fill="#B7CEFF"/>
<path d="M37.7811 37.0238C37.7811 36.0145 38.5993 35.1962 39.6087 35.1962H74.9954C76.0048 35.1962 76.823 36.0145 76.823 37.0238C76.823 38.0332 76.0048 38.8514 74.9954 38.8514H39.6087C38.5993 38.8514 37.7811 38.0332 37.7811 37.0238Z" fill="#2D56B2"/>
<path d="M78.0595 19L93.6802 33.4191H82.0595C79.8504 33.4191 78.0595 31.6282 78.0595 29.4191V19Z" fill="#B7CEFF"/>
<rect width="14.7292" height="2.53951" rx="1.26976" transform="matrix(-0.707107 0.707107 0.707107 0.707107 21.4111 21.0001)" fill="#2D56B2"/>
<rect width="14.7292" height="2.53951" rx="1.26976" transform="matrix(0.707107 0.707107 0.707107 -0.707107 10.996 22.7957)" fill="#2D56B2"/>
<circle cx="27.3372" cy="56.3412" r="4.3412" stroke="#5388FE" stroke-width="4"/>
<circle cx="117.604" cy="69.6078" r="3.60776" stroke="#2D56B2" stroke-width="4"/>
<circle cx="11.1061" cy="77.1101" r="1.11008" stroke="#4F86FF" stroke-width="3"/>
<path d="M63.9106 123.958C85.7827 123.958 103.514 122.923 103.514 121.646C103.514 120.369 85.7827 119.334 63.9106 119.334C42.0385 119.334 24.3077 120.369 24.3077 121.646C24.3077 122.923 42.0385 123.958 63.9106 123.958Z" fill="#B7CEFF"/>
<path d="M84.7358 87.7785L90.6863 81.828L115.207 102.757C118.21 105.32 118.391 109.899 115.599 112.691C112.807 115.483 108.228 115.302 105.665 112.299L84.7358 87.7785Z" fill="#1A3166"/>
<path d="M88.9606 92.7285L105.665 112.299C108.228 115.303 112.807 115.483 115.599 112.691C118.391 109.899 118.21 105.32 115.207 102.757L93.3602 84.1102C92.481 87.2797 90.9679 90.1976 88.9606 92.7285Z" fill="#2D56B2"/>
<path d="M77.9412 52.0705L62.5606 87.7787C62.3237 87.5955 62.089 87.4057 61.8586 87.2138C60.372 85.9566 59.0774 84.4796 58.0177 82.8315L71.3029 51.9876C73.5039 51.6253 75.7495 51.6533 77.9412 52.0705Z" fill="white"/>
<path d="M88.8749 58.2655L74.414 91.8382C71.4103 91.8415 68.4461 91.1384 65.7507 89.7834L81.5409 53.1219C84.3383 54.2403 86.8474 56 88.8749 58.2655Z" fill="white"/>
<path fill-rule="evenodd" clip-rule="evenodd" d="M65.6228 57.0065C62.8226 58.829 60.6045 61.4658 59.2584 64.5909C57.912 67.7166 57.5013 71.184 58.0813 74.5524C58.6612 77.9205 60.2039 81.0292 62.5052 83.4882C64.8058 85.9464 67.7602 87.6445 70.991 88.3778C74.2213 89.111 77.5919 88.849 80.6794 87.6229L80.6797 87.6227C82.7306 86.8085 84.6086 85.5875 86.2049 84.0266C87.8012 82.4655 89.0844 80.595 89.9783 78.52C90.8721 76.4449 91.3582 74.208 91.4071 71.9373C91.4561 69.6666 91.0668 67.4095 90.263 65.2955L90.2629 65.2952C89.0525 62.1113 86.9495 59.3756 84.2294 57.4275C81.5101 55.48 78.2938 54.4049 74.9873 54.3302C71.6809 54.2556 68.4223 55.1844 65.6228 57.0065ZM54.0838 62.3619C55.8637 58.23 58.8065 54.7204 62.5494 52.2843C66.2931 49.8477 70.666 48.597 75.1144 48.6974C79.5628 48.7979 83.8765 50.2446 87.51 52.8469C91.1427 55.4485 93.9301 59.0862 95.5294 63.2932C96.5917 66.0869 97.1046 69.0652 97.0401 72.0587C96.9755 75.0523 96.3348 78.0051 95.1528 80.749C93.9708 83.493 92.2698 85.9762 90.1441 88.0549C88.0183 90.1337 85.5093 91.7673 82.759 92.8592C78.6162 94.5045 74.0859 94.8578 69.7439 93.8723C65.4023 92.8869 61.453 90.6094 58.3914 87.338C55.3305 84.0674 53.2935 79.9497 52.5287 75.5084C51.7641 71.0674 52.3042 66.4933 54.0838 62.3619Z" fill="#2D56B2"/>
<path d="M113.008 102.952L95.3412 88.4859C94.7936 88.0375 94.1556 88.6682 94.599 89.2196L108.865 106.963C109.415 107.648 110.21 108.092 111.038 108.179L111.528 108.23C113.219 108.407 114.492 107.07 114.243 105.378L114.185 104.985C114.07 104.209 113.644 103.474 113.008 102.952Z" fill="#9FBDFF"/>
<rect width="22.9185" height="3.95147" rx="1.97574" transform="matrix(-0.707107 0.707107 0.707107 0.707107 81.2018 62.0001)" fill="#2D56B2"/>
<rect width="22.9185" height="3.95147" rx="1.97574" transform="matrix(0.707107 0.707107 0.707107 -0.707107 64.996 64.7941)" fill="#2D56B2"/>
<rect width="12.8004" height="2.20696" rx="1.10348" transform="matrix(-0.707107 0.707107 0.707107 0.707107 112.047 37.0001)" fill="#5388FE"/>
<rect width="12.8004" height="2.20696" rx="1.10348" transform="matrix(0.707107 0.707107 0.707107 -0.707107 102.996 38.5606)" fill="#5388FE"/>
<rect width="10.8561" height="1.87174" rx="0.935869" transform="matrix(-0.707107 0.707107 0.707107 0.707107 45.6724 107)" fill="#2D56B2"/>
<rect width="10.8561" height="1.87174" rx="0.935869" transform="matrix(0.707107 0.707107 0.707107 -0.707107 37.996 108.324)" fill="#2D56B2"/>
</svg>
